<?xml version="1.0" encoding="utf-8"?>
<!-- Generator: Adobe Illustrator 17.0.0, SVG Export Plug-In . SVG Version: 6.00 Build 0)  -->
<!DOCTYPE svg PUBLIC "-//W3C//DTD SVG 1.1//EN" "http://www.w3.org/Graphics/SVG/1.1/DTD/svg11.dtd">
<svg version="1.1" id="Layer_1" xmlns="http://www.w3.org/2000/svg" xmlns:xlink="http://www.w3.org/1999/xlink" x="0px" y="0px"
	 width="216px" height="183.356px" viewBox="0 0 216 183.356" enable-background="new 0 0 216 183.356" xml:space="preserve">
<path d="M68.17,56.401l21.757-0.138c1.82,3.756-2.629,11.194,3.648,12.929c4.479,3.664,3.64,10.088,5.14,14.919
	c0.519,2.113-1.118,3.591-2.585,4.799c-2.181,1.142-4.127-1.19-6.12,0.212c0.315,14.112-0.332,28.701-0.017,42.811
	c1.883,0.468,3.915,0.129,5.287-1.251c2.347-1.503,5.289-1.161,7.645,0.177c0.376,3.097,4.882,2.406,5.087,5.774
	c1.702,2.959-2.633,0.89-2.647,3.113c0.308,1.144,1.409,2.17,2.233,2.852c1.205,1.468-1.083,2.08-0.678,3.486
	c2.246,0.722,1.109,3.782,3.504,3.699c1.104-1.461,0.321-3.565,0.702-5.354c0.481-1.437,2.664-0.004,3.327-1.36
	c-1.446-5.812-7.43-9.333-10.278-14.561c-0.975,0.033-2.397-0.006-3.233-0.954c0.118-4.267-4.187-0.387-5.7-2.999
	c0.464-4.545-1.063-10.088,3.005-13.161c3.972,1.815,5.258-4.624,9.25-2.19c1.47-3.692,3.209-7.305,5.217-10.84
	c-0.197-13.314,0.053-29.045,0.403-41.847l30.91-0.013l0.293-22.126c-9.698-0.459-21.744,0.494-31.096-0.245l0.317-34.117L91.158,0
	c-0.236,11.022-0.698,23.205-0.593,33.859l-0.341,0.457c-10.923,0.026-20.702-0.254-31.173,0.022
	c0.004,5.241-0.127,11.64,0.129,16.426C62.903,50.546,65.854,53.64,68.17,56.401z M110.618,51.099c1.5-2.804-1.339-5.282-1.96-7.835
	c-0.494-1.404-0.468-3.182,0.647-4.287c0.766-1.004,2.983-1.081,3.211,0.332c-0.35,0.19-0.153,0.715-0.14,1.072
	c-0.547-0.337-1.085-0.497-1.702-0.385c-2.039,2.647,1.155,5.11,1.686,7.579c0.51,1.936,0.687,4.416-1.5,5.381
	c-0.886,0.033-1.945,0.247-2.594-0.529l-0.052-1.509C108.914,50.626,109.944,52.101,110.618,51.099z M97.035,36.031
	c0.63,0.245,0.805,0.151,1.513,0.125l-0.203,6.846c1.271,0.755,3.021-0.015,4.281,0.473l0.429-0.46l0.026-6.839l1.42-0.05
	l-0.002,17.765c-0.431,0.369-1.061,0.125-1.68,0.236l0.162-8.088c-1.428-0.217-3.032-0.339-4.274-0.295
	c-0.363,2.323-0.35,5.254-0.162,8.088c-0.429,0.37-1.146,0.219-1.676,0.326L97.035,36.031z M91.173,38.546l1.507-0.053l0.055,14.296
	c-0.521,0.284-0.702,0.203-1.5,0.232C90.972,48.056,91.164,43.43,91.173,38.546z M25.201,77.265
	c9.79-7.004,19.488-14.182,30.718-18.126c1.057-0.304,2.647-0.536,3.559,0.142c0.284,0.523-0.33,0.721-0.584,1.085
	c-3.333,1.183-6.478,2.714-9.62,4.333c-2.441,1.33-3.149,3.841-4.499,5.932c-3.6,1.19-3.642,5.1-5.505,7.651
	c-2.73,3.204-1.413,7.865-4.322,11.076c0.901,2.9-1.238,5.195-0.774,8.287c0.284,0.523,0.315,1.411,1.111,1.293
	c2.413-4.613,6.448-8.574,10.033-12.784l0.186,0.26c-2.437,9.055-11.194,15.134-15.341,23.539c-0.914,1.809-0.289,4.451-2.559,5.595
	c-2.773,4.539-0.87,10.689,1.757,14.683c0.284,0.523,0.584,1.49-0.109,1.958c-1.818-1.179-1.984-3.395-2.581-5.238
	c-0.193-0.437-0.665-1.22-1.28-1.021c-0.669,6.24-3.648,12.474-0.411,18.756c2.227,5.252,8.277,5.573,12.192,8.279l-0.339,0.455
	c-3.126-0.512-5.599-2.647-8.471-3.524c-0.713-0.063-2.605-0.796-2.552,0.711c3.195,2.465,7.117,2.861,10.639,4.514
	c5.632,1.045,10.225-4.799,15.681-1.17c6.198,2.003,10.586-2.058,14.725-5.665c1.745-0.862,3.6-1.192,5.07-2.31
	c-1.188-0.936-2.533-1.332-3.718-2.178c-3.253-1.575-5.138,2.933-8.176,2.417c-0.022-0.621,0.757-1.271,0.109-1.958
	c-2.332-0.63-4.232,0.857-6.349,1.286c-2.299,0.258-5.654,0.91-7.465-0.094c4.337-2.992,9.609-2.111,14.814-3.093
	c1.148-0.217,2.461-0.796,2.233-2.209c-0.573-1.135-1.717-0.829-2.537-1.422c-3.799,0.578-8.255,0.199-11.693,0.853l-0.017-0.444
	c1.566-0.943,3.32-1.625,4.983-2.305c1.684-0.149,2.935,0.074,4.059-0.763c-0.652-0.866-0.608-2.111-1.776-2.513
	c-3.097-2.203-6.566,0.14-9.071-2.88c-3.839-0.578-7.623-2.043-10.632-4.337l2.482-2.662c0.282,0.435,0.825,0.682,0.925,1.035
	c0.753,1.216,1.802,3.311,3.646,2.714c1.328-0.136,1.015-1.457,0.982-2.432c-4.103-3.056-6.286-7.065-7.594-11.459
	c-0.166-2.216-1.052-4.67,0.398-6.409c1.636,3.672,1.452,8.565,4.06,12.026l0.444-0.015c0.103-2.135,0.238-3.384,0.429-5.521
	c2.513-9.414,5.746-18.587,12.487-26.461c2.944-2.233,6.717-3.519,10.573-2.5c3.309,0.684,3.966,4.212,4.331,7.043
	c3.196-2.599-0.919-5.919-1.64-8.823c1.478-3.427,1.918,1.531,3.675,0.936l-0.114-3.194c1.19-1.551,2.795,1.146,4.725,0.457
	l-0.046-1.33c-4.044-1.369-2.872-5.941-5.619-8.331c-0.542-0.247-1.518-0.212-1.942,0.335c-0.936,1.188,1.041,1.918,0.544,2.911
	L68.193,74.7c-0.991-0.409-0.847-1.391-0.969-2.275c-0.652-0.866-1.549-1.19-2.616-1.153c-1.684,0.059-0.127,1.426-1.166,2.172
	c-2.229-0.188-4.311-1.358-6.205,0.396c0.945,4.141,8.086,0.072,8.519,4.853c-3.567-0.409-7.632-2.399-11.113-0.324
	c-2.458,0.796-4.488,6.286-6.719,3.432c-2.266-6.404,4.254-10.451,8.277-14.766c3.064-3.836,8.414-5.8,9.396-10.72
	c-1.05-2.093-3.154-3.885-5.289-3.9c-4.862,0.615-8.762,3.414-12.949,5.604c-8.058,5.788-16.652,11.505-23.491,19.117
	C24.23,77.477,24.755,77.28,25.201,77.265z M28.088,137.115c-0.179-0.083-0.262,0.098-0.348,0.19c-0.742-0.862-1.402-1.995-1-3.163
	l0.424-0.636C27.909,134.457,28.753,135.759,28.088,137.115z M29.503,116.548c1.209,1.558,1.457,3.592,2.137,5.256
	c0.66,1.131,1.855,2.244,1.807,3.401c-0.514,0.549-1.251-0.223-1.841,0.684c0.236,1.68,3.134,3.266,1.406,4.659
	C29.335,127.036,28.788,121.548,29.503,116.548z M47.078,149.241c0.481,1.137-0.923,1.632-1.627,1.745
	c-6.26-1.203-11.658-0.658-16.597-4.751l0.258-0.186C34.309,149.864,40.739,148.397,47.078,149.241z M41.162,145.186
	c0.733-1.892,3.038-2.061,4.132-3.786C44.978,142.565,42.918,144.591,41.162,145.186z M43.731,132.305l1.072,0.14
	c-1.815,1.485-4.125,1.476-6.518,1.562C39.764,133.154,42.15,132.806,43.731,132.305z M46.453,136.474
	c-2.848,2.408-5.455,6.586-9.372,6.278c-0.812-0.326-0.846-1.302-0.512-1.936C39.893,139.368,42.743,137.047,46.453,136.474z
	 M70.401,77.018c0.538,0.16,0.199,0.615,0.037,1.065l-0.267,0.009L70.401,77.018z M63.301,64.476
	c-3.874,3.511-9.401,5.479-10.903,10.772l0.442-0.015c4.648-6.824,16.286-6.697,16.921-16.577l-0.457-0.339
	C66.945,59.465,65.088,62.282,63.301,64.476z M81.746,66.141c-2.126,0.164-3.67,1.728-5.219,3.202
	c-0.757,1.181,0.433,2.207,1.339,2.708c5.809,1.039,11.295,2.979,16.78,4.919c0.582-1.174,0.516-3.036-0.149-4.256
	C91.934,68.006,86.969,65.692,81.746,66.141z M32.692,85.795c2.434-4.081,5.221-8.176,3.795-13.366
	c-1.605-0.21-2.975,1.26-3.281,2.69c1.019,3.694-1.203,6.26-1.802,9.39C31.52,85.303,31.907,86.178,32.692,85.795z M75.101,71.703
	c-0.908-0.501-1.861,0.153-2.553,0.711c-0.317,1.076,0.497,1.492,1.14,2.091c1.153-0.039,2.787,0.969,3.631-0.304
	C77.199,73.317,75.841,72.564,75.101,71.703z M30.035,75.852c-1.711,1.837-4.302,3.97-3.408,6.691
	c0.477,0.96,1.225,2.001,2.463,1.868c2.415-2.126,2.817-5.871,1.833-8.589L30.035,75.852z M82.044,74.658
	c-0.796,0.116-1.507,0.142-1.923,0.956c0.046,1.33,0.717,2.727,2.071,3.303c3.277-2.78,2.843,2.653,5.011,3.644
	c0.545,0.335,1.52,0.302,1.857-0.243c0.451-2.325-1.225-4.576-3.401-5.833C84.248,76.801,82.89,76.049,82.044,74.658z
	 M79.183,79.286c0.518-0.461,0.674-1.089,0.56-1.795c-0.49-1.315-1.933-1.975-3.268-2.017c-0.704,0.201-1.846,0.51-1.632,1.566
	C75.865,78.337,77.251,79.888,79.183,79.286z M20.035,89.612c2.019-0.691,3.893-2.977,4.803-4.873
	c1.061-2.703-1.4-4.482-1.575-6.962c-2.003,1.135-2.797,3.828-3.79,5.906C19.361,85.55,17.946,88.265,20.035,89.612z M89.386,78.932
	c1.671,2.071,1.5,4.832,2.211,7.382c0.411,1.586,2.104,1.791,3.696,1.56c2.358-1.148,1.452-4.136,1.203-6.26
	c-1.076-2.804-4.388-3.576-6.907-4.466L89.386,78.932z M89.414,84.881c-1.159-0.138-2.148-0.459-3.062-1.225
	c-3.176-6.995-7.946,1.343-12.817-0.796c0.639,2.996-0.101,4.709,1.767,7.397c1.465,1.194,2.524-1.509,4.06-0.764
	c-0.022-0.621-0.223-1.323,0.118-1.691c0.897,0.234,0.149,1.682,0.704,2.286c1.662-0.68,2.459,1.778,3.856,1.107
	c0.871-3.049,4.092-2.362,6.087-3.764C90.626,86.436,89.972,85.572,89.414,84.881z M82.752,84.846c1.26,0.4,2.371,1.695,2.502,2.933
	C84.178,87.462,82.977,86.171,82.752,84.846z M87.109,87.536c-0.892-0.146-1.028-1.474-1.492-2.08l0.153-0.715
	C86.501,85.338,87.332,86.285,87.109,87.536z M28.095,94.039c4.98,0.182,0.083-5.243,2.119-7.979
	c-1.387-1.551-3.364,0.295-4.672,1.052C22.097,90.163,27.563,91.57,28.095,94.039z M68.933,90.924
	c-1.326-2.351-3.769-3.598-6.102-4.315C55.58,84.997,52.865,93.794,50,98.158c-3.723,7.859-7.692,16.256-5.324,25.589
	c7.905,7.629,21.628,3.863,31.265,2.55c1.767-0.241,0.895-2.343,1.402-3.069c-0.497-6.555,0.276-15.02-3.294-20.58
	c-0.706,0.114-0.68,0.912-1.017,1.367c-0.07,8.174-3.493,16.997-11.457,20.385c-0.446-0.074-0.818-0.505-0.658-1.043
	c3.082-3.305,8.543-7.137,8.712-12.472c0.184-2.406,2.867-4.363,1.45-6.802c-6.284,3.152-10.199,10.571-15.906,15.033
	c-0.359-0.076-0.794,0.206-1.074-0.229c0.525-2.771,4.37-4.593,4.899-7.187c-0.346,0.28-0.796,0.118-1.05,0.481
	c-3.058,1.439-5.319,5.337-8.78,5.459c3.056-4.105,7.2-7.448,11.183-10.429l0.14-1.07c-2.622,1.157-5.223,3.025-8.154,3.038
	c2.347-3.99,8.961-2.8,11.013-7.668c-2.813,0.809-5.63,1.529-8.447,2.251l-0.639-0.422c2.927-2.679,7.185-2.828,10.49-4.808
	C67.174,96.581,69.3,93.842,68.933,90.924z M62.052,94.807c-1.877-0.291-2.69,1.87-4.466,1.844
	c-0.324-1.588,1.041-3.235,2.246-4.341c1.227-0.488,2.918-0.37,3.837,0.487C63.88,93.766,62.748,94.426,62.052,94.807z
	 M126.764,86.152c-2.924,7.828-10.696,14.141-12.008,22.358c2.373-0.707,4.433-2.732,5.956-4.917
	c1.779-5.035,6.078-9.092,7.229-14.285C127.547,88.256,127.762,86.738,126.764,86.152z M18.801,94.984
	c1.5-0.317,1.347-2.089,1.575-3.25c-0.871-2.014-3.04-0.606-4.073,0.407c-0.151,0.718-1.015,1.457-0.363,2.323
	C16.758,94.966,17.74,95.111,18.801,94.984z M2.611,150.173c0.083-0.179,0.166-0.271,0.346-0.278
	c-0.223-16.514,1.588-33.362,6.658-48.371c1.03-3.589,5.013-6.481,3.902-10.35c-3.399,4.381-5.625,9.254-7.406,14.292
	c-4.803,17.575-7.141,37.107-5.678,56.064c0.033,0.976,0.606,2.111,1.92,1.621c1.737-3.703,0.665-8.904,0.442-12.807L2.611,150.173z
	 M111.147,109.435c0.77-0.827,1.973-1.936,2.647-3.025c0.221-6.402,6.562-10.442,8.852-16.118c0.238-0.807,0.365-2.233-0.37-2.918
	C118.098,94.892,108.772,99.925,111.147,109.435z M22.292,93.175c-1.173,2.085-4.055,3.427-3.598,6.343l1.507-0.053
	c1.64-1.389,4.816-2.034,4.716-4.871C24.615,93.538,23.521,92.777,22.292,93.175z M31.925,99.411l-0.081-2.305
	c-0.68-1.665-2.854-2.92-4.503-1.798c-1.997,1.315-2.452,3.55-4.086,5.118l0.621-0.022C26.476,101.113,29.129,98.265,31.925,99.411z
	 M79.06,93.501c-3.427,1.098-4.72,4.784-4.241,8.32c1.03,1.474,1.461,3.679,3.598,3.872c2.603,0.709,6.321,0.4,8.194-1.973
	c0.488-1.262-0.993-0.411-1.286-1.199c0.853-1.008,2.607-1.601,1.846-3.086c-0.899-0.324-2.019,0.694-3.016,0.107
	c0.131-1.339,1.647-1.214,2.233-2.211c-0.188-2.835-2.721,0.984-3.998-0.037c0.227-1.074,2.074-1.671,1.409-2.892
	c-2.211,0.256-3.95,1.382-5.682,2.596C77.809,95.854,79.366,94.647,79.06,93.501z M17.196,104.901
	c1.107-1.371,1.043-3.145,0.888-5.006c-0.748-1.129-0.45-2.736-1.203-3.955c-1.243,0.044-1.99,1.492-2.491,2.397
	c-1.07,2.434-0.175,5.158,1.139,7.242C16.343,105.907,16.478,104.748,17.196,104.901z M17.987,153.012
	c-2.994-9.401-0.879-20.042,3.541-28.279c0.65-1.71-0.295-3.366-1.835-4.2c-2.955-0.695-2.2,3.097-3.3,4.646
	c-0.505,0.816-0.466,1.969-1.606,2.364l-0.214-1.058c1.078-4.744,0.634-9.792,1.341-14.968l-0.457-0.429
	c-1.214,3.419-0.715,7.485-2.828,10.58c-0.512-1.936-0.157-4.525,0.21-6.669c-0.052-1.507,1.037-3.412-0.336-4.606
	c-0.363-0.166-0.435,0.282-0.608,0.376c-1.988,9.217-2.627,18.92-3.987,28.294l-0.728,1.979c-0.555-10.816,0.731-22.229,3.11-32.971
	c0.77-3.404,2.441-6.391,2.852-9.869c-1.87,2.373-2.839,5.16-3.806,8.036c-3.922,17.369-6.754,35.407-4.956,53.82
	c0.28,0.433,0.726,0.507,1.078,0.407c2.404-4.969-0.055-11.724,1.358-17.1c0.621,0.066,0.746,1.039,1.527,0.566
	c3.347-3.403,2.091-8.865,3.358-13.261c1.236-0.221,0.313,1.321,0.951,1.831c0.381,0.698,0.783-0.47,1.251,0.223
	c-0.158,0.538,0.38,0.698,0.223,1.236c-2.441,6.391-2.528,14.121-0.516,20.891c0.672,1.398,1.772,2.336,3.44,1.833
	C18.351,155.84,18.033,154.342,17.987,153.012z M27.581,109.866c2.12-2.916,5.21-5.956,4.368-9.744l-1.909,1.31
	c-0.516,2.948-3.465,5.004-4.344,7.789C25.56,110.47,26.951,109.621,27.581,109.866z M28.766,100.588
	c-2.236-0.455-3.519,0.923-4.804,2.299c-0.573,1.354-0.936,3.675-0.1,4.711C26.387,106.179,28.683,103.256,28.766,100.588z
	 M22.375,105.785c-0.919-0.945-0.542-2.824-1.885-3.132c-1.352,1.914-3.867,3.688-2.712,6.223c0.385,0.875,1.321,2.264,2.631,1.596
	C21.693,109.094,22.53,107.644,22.375,105.785z M24.103,119.58c2.249-1.678,2.404-4.88,2.756-7.557l-0.763-1.483
	c-2.365,0.971-4.228,3.524-4.221,6.275C22.272,118.044,22.495,119.37,24.103,119.58z M17.541,114.836
	c-0.398,1.345-0.079,2.846,0.756,3.88c0.639,0.512,1.724,1.006,2.424,0.715c1.072-2.347,0.066-5.774,0.516-8.099
	C19.282,111.31,18.565,113.646,17.541,114.836z M112.995,114.076c0.772-0.827,0.553-1.973,0.785-2.957
	c-0.372-0.431-0.14-1.505-1.102-1.028c-0.853,1.006-0.803,2.426-0.752,3.845C112.304,114.634,112.641,114.09,112.995,114.076z
	 M127.167,110.384c-4.368-0.468-8.85,0.932-11.4,4.217c0.855,1.568,2.187,1.612,3.513,1.387c3.034-2.148,6.828-2.813,10.534-3.565
	C129.603,111.454,128.076,110.975,127.167,110.384z M102.881,111.854c-0.413,0.904,0.066,1.864,0.534,2.557
	c2.369-0.794,4.302,1.094,6.861,0.65c0.87-0.475,0.831-1.627,0.796-2.605C109.201,109.68,105.454,111.765,102.881,111.854z
	 M102.158,114.011c-0.582-1.4-2.214-2.321-3.697-1.557c-1.382,1.114-2.209,2.83-1.787,4.768c2.043,0.017,3.537-0.477,5.177,0.708
	C102.249,116.673,102.647,115.328,102.158,114.011z M85.613,154.025c0.982,0.142,2.509,0.623,3.181-0.466
	c-4.373-10.772-0.171-22.732-2.69-33.835c-0.956-1.92-2.271-4.007-4.438-4.998c-0.803-0.059-2.24-0.542-2.734,0.54
	c-0.741,4.202,2.463,9.506-1.24,12.833c-7.235,3.895-14.563,2.64-22.752,2.128c-2.154-0.637-4.571-1.173-6.868-0.827l0.013,0.354
	c2.988,1.673,6.951,0.645,9.692,2.859c1.407,2.085,4.114,3.32,5.519,5.405l2.909-3.124c0.711-0.024,1.332-0.046,1.708,0.562
	c-0.894,2.34,0.081,4.882,1.741,6.601c0.722,0.33,1.717,0.829,2.587,0.354l7.633-7.728l0.801-0.028
	c-0.923,4.119-5.424,7.474-3.395,12.198c0.836,1.037,1.785,2.78,3.268,2.017l1.124-11.052l0.597-0.731l0.186,0.26
	C83.889,142.804,80.158,150.396,85.613,154.025z M115.784,120.196c-0.125-1.061,0.105-2.135-0.282-3.01
	c-0.558-0.691-0.768-1.66-1.84-1.8c-1.951,0.068-3.83-0.31-5.263,1.87c-0.245,0.63-1.542,1.654-0.105,2.135
	C111.361,118.132,113.251,121.351,115.784,120.196z M104.095,116.076c0.21,0.969,0.599,1.934,1.592,2.343
	c0.696-0.38,1.293-1.111,0.995-1.988C106.123,115.649,104.599,115.258,104.095,116.076z M96.245,122.744
	c0.549,0.424,0.588,1.577,1.555,1.278c0.818-1.982,3.244-3.753,2.542-6.039C97.849,117.804,95.895,120.358,96.245,122.744z
	 M123.435,120.551c1.43,0.217,1.85,2.067,2.931,2.474c0.398-1.258,0.79-2.78,0.21-4.092c-0.94-1.566-2.813-1.768-4.672-1.525
	c-1.048,0.481-1.898,1.575-2.047,2.38C120.539,121.542,122.005,120.247,123.435,120.551z M128.945,118.049
	c-1.739,1.126-0.51,3.215-0.451,4.901c0.376,0.608,1.122,1.649,2.172,1.168c0.857-0.919,1.522-2.185,1.124-3.414
	C131.388,119.385,130.288,118.357,128.945,118.049z M107.085,127.961c1.258-2.176,2.749-5.247,0.805-7.489
	c-1.549-1.1-2.093,1.14-3.327,1.36c-0.571-1.046-1.435-2.88-3.084-1.758c-1.557,1.12-0.337,3.031-0.022,4.442
	C102.516,126.789,104.938,127.504,107.085,127.961z M113.496,133.51l0.1-9.862c-0.232-1.501-1.599-2.52-2.942-2.828
	c-1.065,2.524-0.182,4.98-0.348,7.828L113.496,133.51z M117.628,129.724c2.931-0.013,4.324-3.349,6.673-4.762
	c-0.516-2.025-2.402-2.671-4.2-3.228c-1.325,0.223-2.441,1.328-3.112,2.417C117.232,126.008,115.806,128.456,117.628,129.724z
	 M126.55,128.346c1.481-0.851,1.59-2.808,1.094-4.3c-0.871,0.475-2.192,0.788-2.24,1.942
	C125.784,126.776,125.743,128.11,126.55,128.346z M130.277,125.641c-0.429,0.459-1.032,1.015-0.569,1.531
	c1.173,0.58,2.211,2.321,3.893,2.172c0.93-1.365-0.252-2.121,0.044-3.819C132.637,124.582,131.34,125.603,130.277,125.641z
	 M147.67,130.363l-0.074-2.128c-0.284-0.523-0.84-1.214-1.549-1.19l-0.099,2.312C146.24,130.057,146.966,130.477,147.67,130.363z
	 M130.098,133.285c0.857-0.916,0.982-2.432,0.499-3.57c-0.586-1.49-2.747-2.301-2.929,0.103c-0.118,1.691-2.561,2.931-1.619,4.497
	C127.484,134.709,129.07,134.387,130.098,133.285z M118.229,141.872l2.408,0.271l-4.411-4.287
	c-3.736-2.623-4.753-8.893-10.167-8.793C108.735,134.477,114.334,137.124,118.229,141.872z M125.552,130.247
	c-0.893-2.633-4.477-0.997-6.046-0.144c-1.144,0.306-2.159,1.763-1.317,2.977c1.853-0.33,2.944,2.918,4.926,1.161
	C124.233,133.224,125.881,132.012,125.552,130.247z M153.048,149.536c0.895-7.402-4.552-13.34-1.975-20.98
	c-1.277-0.932-1.732,1.303-1.879,2.198c0.042,6.304,0.378,13.397,2.977,19.08C152.434,149.735,152.887,149.987,153.048,149.536z
	 M97.853,130.592c-0.965,0.389-1.719,1.66-1.864,2.642c0.199,0.615,0.836,1.034,1.54,0.833c0.958-0.566,2.345-1.503,2.03-2.914
	C99.439,130.271,98.474,130.66,97.853,130.592z M149.448,150.728c1.128-0.75,0.365-2.233,0.503-3.393
	c-3.648-5.291-1.271-13.543-6.137-18.082c2.067,5.79,1.096,13.55,3.432,19.421C147.805,149.453,148.208,150.862,149.448,150.728z
	 M124.24,143.528c-1.255-2.887-4.068-4.567-5.941-7.255c-1.29-1.376-0.323-4.252-2.734-4.611c-0.814,2.159,0.577,3.887,1.435,5.545
	C119.037,139.534,121.626,142.463,124.24,143.528z M91.062,139.624c1.553-1.299,3.891-2.979,4.083-5.116
	c-0.564-0.958-1.632-1.011-2.526-1.157c-1.061,0.127-1.743,0.949-2.52,1.599c-0.661,1.444-1.483,3.338-0.451,4.899
	C90.088,139.746,90.718,139.991,91.062,139.624z M102.455,140.291c1.286-1.288,2.568-2.754,2.141-4.781
	c-0.949-1.743-3.174-1.844-4.932-1.339c-4.865,0.615,1.146,2.27,0.149,4.259C99.857,139.672,101.3,140.33,102.455,140.291z
	 M143.416,135.662c-0.571-1.045-1.56-1.454-2.649-2.038c-2.34-0.895-5.236,0.094-7.262,0.608c-2.419,1.951-5.424,4.897-5.238,7.645
	c4.626,2.769,5.116-3.554,7.887-5.604c2.167-1.498,4.88-0.171,7.283,0.011L143.416,135.662z M95.738,138.749
	c0.114,0.707,0.766,1.573,1.555,1.278c0.884-0.118,1.015-1.455,0.547-2.15c-0.118-0.794-0.608-2.111-1.745-1.628
	C95.585,136.89,95.707,137.863,95.738,138.749z M91.995,145.987c1.442-1.916,3.333-3.67,3.338-6.157
	c-1.321,0.313-2.927,0.19-4.243,0.593c-1.837,0.862-1.164,2.262-1.116,3.679C90.443,144.797,90.755,146.118,91.995,145.987z
	 M97.975,146.842c1.737-1.127,3.355-3.137,3.828-4.84l-0.652-0.866c-2.725-1.68-2.577,2.577-5.011,1.507
	c-1.218,0.665-1.975,1.936-1.84,3.263C94.988,147.745,96.812,146.616,97.975,146.842z M141.917,148.683
	c-5.35-10.739-18.624,0.827-25.827-7.004c1.05,2.096,1.33,5.016,3.854,6.083C127.018,149.381,135.307,145.094,141.917,148.683z
	 M107.112,151.586l0.606-0.466c0.31-1.253-0.691-1.929-0.989-2.896c-0.663-1.131-1.934-1.885-3.263-1.839
	c-1.92,0.954-1.739,3.613-1.96,4.952C103.317,152.251,105.32,151.203,107.112,151.586z M76.842,164.81
	c-0.446-0.072-1.089-0.672-0.923-1.032c1.824-1.131,2.214-5.23,5.188-4.001c1.052-0.391,1.99-1.492,1.862-2.64
	c-1.267-3.244-3.59-6.181-6.514-8.478c-1.179-0.669-2.238-0.455-3.559-0.142c-6.737,5.477-15.621,10.405-24.126,5.995
	c-0.809-0.238-2.861-0.523-2.27,1.144c1.732,1.273,3.95,1.194,6.011,1.656c6.418,3.239,13.305-0.466,19.567-1.75
	c1.417-0.138,3.438-0.742,4.628,0.282c-1.5,2.806-6.002,1.098-8.167,2.684c-0.914,1.809,1.564,1.544,2.638,1.774
	c0.634,0.333,1.636,1.096,1.133,1.914c-1.754,0.595-2.371-1.783-4.127-1.188c-1.144,0.306-0.833,1.538-1.433,2.181
	c-3.771-1.111-7.469-2.758-11.4-3.421c-4.751,3.896-6.64-4.475-11.216-3.25c-0.276,2.321,2.336,3.294,3.196,5.042
	c0.667,1.308-0.457,2.146-1.402,3.069c-0.875,0.385-1.85,0.42-2.751,0.096c0.973-0.125,1.57-0.855,2.255-1.59
	c0.501-0.905-0.068-1.951-0.273-2.743c-1.472-1.459-2.913-4.606-5.022-3.911c-0.429,0.459-0.494,1.083-0.385,1.702
	c2.371,1.783,0.643,5.66,3.609,6.713c-0.803,2.426-3.054,1.526-4.788,2.743c-1.411,0.315-1.708,1.925-1.575,3.252
	c-0.494,1.083-1.542,1.651-2.697,1.603c-1.979-0.73-0.617-2.375-0.836-3.611c-1.864-2.423-4.525,0.158-6.737,0.411
	c-0.682,0.825,0.403,1.319,0.689,1.931c-2.377,0.615-5.225-2.126-7.97-1.855c-0.61,0.289-1.384,1.026-1.45,1.739
	c0.691,1.931,3.246,1.308,4.777,1.966c4.186,2.872,9.357,0.917,14.108,2.082c4.248-0.416,6.645-5.562,10.919-5.267
	c5.796,3.261,15.088,2.227,20.189-1.772c4.466-1.754,9.637,1.262,12.97-2.406C80.434,163.353,78.17,164.677,76.842,164.81z
	 M62.043,168.347c-4.16,0.414-8.966,0.135-12.686-2.133c0.333-0.632,0.674-0.999,1.284-1.376c1.87,0.112,4.081,2.432,5.514,0.252
	l-0.214-1.059c1.33-0.135,2.577-0.002,3.662,0.494c0.033,0.976,0.431,2.205,1.5,2.345l3.018-0.105
	C64.167,168.095,62.638,167.527,62.043,168.347z M118.96,150.105c-1.478-1.724-3.176-4.506-5.875-2.992
	c-0.956,0.656-1.982,1.759-1.759,3.082c1.57,1.722,3.823,2.708,6.223,2.715C118.501,152.166,118.912,151.262,118.96,150.105z
	 M160.54,163.13c1.349,0.486,2.843-0.009,4.068-0.496c0.295-4.274-4.567-6.146-3.832-10.525c0.705-2.778,3.561-4.832,6.024-5.538
	c-3.876-1.64-7.621,0.444-10.372,3.115c-0.306,1.343,1.133,1.914,1.61,2.876c0.332,1.853-0.958,3.051-1.977,4.331
	C155.445,159.668,158.886,161.59,160.54,163.13z M134.367,151.255c0.516-0.461,0.584-1.087,0.739-1.713
	c-0.293-0.79-0.853-1.57-1.905-1.177c-0.798,0.026-0.591,0.908-0.569,1.529C132.928,150.685,133.396,151.378,134.367,151.255z
	 M128.284,155.109c1.284-1.378,4.506-0.691,3.963-3.513c-1.765-4.735-5.687-0.068-7.22,1.761c-3.97,5.912,2.023,12.188,0.643,18.452
	l0.459,0.429C131.025,167.448,123.763,160.418,128.284,155.109z M109.824,150.424c-1.236,0.221-1.367,1.557-1.24,2.62
	c0.381,0.698,1.111,1.293,1.988,0.995c0.866-0.652,0.833-1.628,0.798-2.603C111.088,151.002,110.613,150.131,109.824,150.424z
	 M20.453,167.669c2.52-1.599,6.787,1.096,8.898-2.087c0.676-1.002,1.971-2.113,1.389-3.425l-1.951,0.07
	c-1.846,0.507-3.274,2.867-5.262,1.87c1.181-1.818,3.487-1.898,5.044-3.106c1.006-1.634,1.465-3.782,0.862-5.805
	c-0.311-1.231-1.658-1.717-2.892-1.409c-4.143,3.432-8.788,7.769-8.683,13.272C18.508,167.914,19.577,168.054,20.453,167.669z
	 M138.656,151.995c-0.691,0.556-0.475,1.704-0.186,2.314c0.919,0.858,1.597,2.432,2.909,1.853c0.212-1.518,1.054-2.789,0.643-4.462
	C141.097,150.665,139.599,150.984,138.656,151.995z M123.19,154.222c0.079-0.359-0.285-0.523-0.293-0.79
	c-1.518-0.212-3.189-2.286-4.451-0.289l0.643,0.599C120.349,154.232,122.162,155.324,123.19,154.222z M34.768,155.444
	c-0.879,0.21-1.304,0.757-1.724,1.481c0.262,2.391-0.984,4.832-0.123,6.667c3.242-3.843,1.138,2.004,3.023,2.647
	c1.618,0.566,2.45-1.061,3.407-1.627c1.037-0.835,0.359-2.41,0.494-3.659C38.792,158.769,37.524,155.438,34.768,155.444z
	 M98.824,153.386c-5.521-0.429-9.83,3.362-14.073,6.441c-1.391,0.849-3.43,1.008-4.176,2.544c6.393,2.531,11.072-3.406,16.706-4.847
	C99.13,157.017,98.968,154.978,98.824,153.386z M105.832,153.141c-0.267-0.081-0.702,0.201-0.803-0.151
	c-1.284,1.378-2.785-0.879-3.6,1.192c-1.43,2.27,0.938,3.963,1.45,5.901c0.809,0.326,1.345,0.396,1.942-0.334
	C104.649,157.356,106.536,155.424,105.832,153.141z M109.356,162.432c1.73-1.304,3.18-3.042,3.014-5.258
	c-0.151-1.769-1.341-2.795-3.274-2.194c-0.372-0.431-1.004-0.763-1.111-1.293l-1.019,1.367c-1.877,2.196,1.295,3.952,0.048,6.393
	C107.138,162.509,108.566,162.726,109.356,162.432z M216,164.213c-0.385-0.875-0.066-1.951-1.153-2.535
	c-1.87-0.112-3.069,1.172-4.648,1.673c-8.985,4.755-21.647,5.818-29.646-1.984c-0.805-0.151-1.286,1.376-1.614,2.187
	c1.864,2.421,4.582,4.014,6.612,6.164c-2.273,1.057-4.701,0.164-7.098,0.247c-3.709-7.065-13.329-5.306-19.349-4.652
	c-1.946-2.329-3.469-5.297-5.604-7.887c-0.787,0.295-1.373,1.38-1.334,2.445c0.227,1.413,1.155,2.625,2.261,3.74
	c0.573,1.135,2.312,0.096,2.365,1.605c-0.755,1.269-2.294,0.435-3.355,0.56c-1.258-0.4-2.618-1.24-3.106-2.467
	c-0.953-4.407,2.299-7.896,4.946-11.009c-2.857-0.433-5.479,0.814-7.55,2.574c-1.772,2.636-1.798,6.99-0.367,9.781
	c1.282,3.685,5.473,4.073,8.495,4.232c6.229-2.259,14.186-3.248,20.25-0.085c0.192,0.437,0.927,1.122,0.052,1.509
	c-5.678,0.197-11.687-1.457-16.619-0.308c-4.681,0.785-7.297,4.786-11.776,6.185c-2.019,0.691-4.084,0.053-5.906,1.271
	c9.974,5.868,17.695-4.525,26.724-5.374c10.11,2.135,22.244,1.089,32.076-2.185C205.833,168.122,211.302,166.953,216,164.213z
	 M116.125,160.418c1.647-1.122,2.653-2.846,2.588-4.707c-0.053-1.509-1.903-1.089-2.625-1.42c-1.918,1.046-2.461,3.283-2.299,5.409
	C114.17,160.398,115.154,160.63,116.125,160.418z M144.383,163.34l1.24-0.044c-2.196-4.453-7.822-5.322-10.551-9.668
	c-0.984-0.232-1.925,0.779-1.455,1.562L144.383,163.34z M180.466,158.883c1.728-1.393,4.073-0.32,6.111-0.479
	c0.969-0.212,0.938-1.1,0.822-1.894c-1.61-2.876-5.943-2.279-8.097-0.429c-1.019,1.367-2.305,2.655-1.794,4.593
	C179.039,161.33,179.512,159.536,180.466,158.883z M130.399,159.742c0.111,0.619-0.136,1.159-0.567,1.531
	c-0.229,1.074-0.636,2.152,0.457,2.914c4.982,0.271,9.913,1.52,14.615,1.443c-2.905-1.852-5.523-5.58-9.108-3.943
	c-1.562,1.03-2.599-0.621-3.084-1.846c-1.365-0.93-2.36-4.005-4.547-3.04C128.129,158.312,129.472,158.62,130.399,159.742z
	 M94.2,168.467c-0.501,0.906-1.794,2.017-1.588,2.811l0.886-0.033c5.549-1.347,5.335-7.469,7.686-11.369l-1.584-2.078
	C94.576,158.863,95.849,164.858,94.2,168.467z M118.912,161.387c-2.494,4.884-8.543,7.137-11.75,11.958
	c4.843-3.723,13.058-2.5,16.58-8.484l-1.413-4.836C121.071,159.624,120.045,160.816,118.912,161.387z M91.827,161.533
	c-0.776,0.65-0.47,1.794-1.612,2.189c-1.039,0.746-2.233-0.367-3.193,0.112c0.122,0.971,0.949,1.743,1.588,2.253
	c1.527,0.479,3.285-0.026,4.038-1.385C92.792,163.721,93.172,161.931,91.827,161.533z M90.963,167.338
	c-0.709,0.024-1.22,0.663-1.824,1.129c-0.42,0.726-0.201,1.872,0.7,2.286c1.074,0.228,1.85-0.42,2.27-1.146
	C92.345,168.799,92.205,167.295,90.963,167.338z M153.615,170.834c-2.944-0.341-5.665-2.023-8.465-3.257
	c-5.678,0.11-11.877,0.68-15.628,5.164c-1.017,3.944,2.535,6.483,4.233,9.268c0.835-1.45-0.022-3.108-0.422-4.427
	c-0.888-2.544,0.453-4.812,2.535-6.306C141.681,169.917,147.609,171.755,153.615,170.834z M158.563,180.252
	c-1.966,2.201-5.18,1.781-7.592,1.332c2.133,2.59,6.542,1.636,9.819,1.433c4.143-0.943,7.522-3.371,9.786-7.181l-0.022-0.621
	C165.684,173.076,162.012,177.291,158.563,180.252z M204.383,179.985c-3.089,0.551-6.074,1.544-8.141-1.671
	c-0.584-1.487,0.059-3.377,0.103-4.709c-2.297,0.346-4.694,0.429-6.135,2.345c-0.549,2.063,0.939,3.966,2.314,5.25
	c3.169,1.754,7.371,2.495,11.153,1.387c0.943-0.921,3.307-1.892,2.638-3.289C205.676,178.874,205.182,179.957,204.383,179.985z"/>
</svg>
