<?xml version="1.0" encoding="utf-8"?>
<!-- Generator: Adobe Illustrator 17.0.0, SVG Export Plug-In . SVG Version: 6.00 Build 0)  -->
<!DOCTYPE svg PUBLIC "-//W3C//DTD SVG 1.1//EN" "http://www.w3.org/Graphics/SVG/1.1/DTD/svg11.dtd">
<svg version="1.1" id="Layer_1" xmlns="http://www.w3.org/2000/svg" xmlns:xlink="http://www.w3.org/1999/xlink" x="0px" y="0px"
	 width="216px" height="182.58px" viewBox="0 0 216 182.58" enable-background="new 0 0 216 182.58" xml:space="preserve">
<path d="M208.991,7.241c-13.661,10.914-30.487,15.661-47.648,19.326l-1.081-0.749c-2.916-0.833-6.331,0-8.579,2.083
	c-4.999,0.998-14.956,3.05-15.41,3.081c0.986-7.53-1.085-12.05-3.333-16.548c-2.776-4.999-18.602-22.216-41.405-10.332
	C78.797,10.268,76.467,24.651,75.883,29.9l-0.167-0.167c-0.417-0.332-0.998,0-1.25,0.334c-19.576-2.749-37.899-8.497-56.64-13.411
	c-5.333-1.916-11.248-2.749-16.828-3.832c-0.582,0.332-0.833,1.083-0.749,1.916c1.083,5.83,6.581,7.995,11.411,10.163
	c0.085,4.331,4.083,5.496,6.748,6.663c3.081-0.334,1.916,2.916,3.498,4.331c2.166,1.833,4.832,2.999,7.915,3.415
	c0.749,4.248,4.164,5.747,6.746,8.414v0.916c-6.915,0.417-13.993,0.334-20.658,1.167c-4.413,0.499-8.662,1.582-13.077,1.332
	C1.25,51.308,0.165,52.558,0,54.058c0.666,2.083,2.749,2.832,4.748,3.747c5.164,1.916,12.745-0.666,16.078,4.5
	c2.999,3.166,7.33-0.167,10.328,2.665c1.666,3.749,6.247,4.914,10.328,4.914c2.332,2.417,5.915,3.5,9.747,3.166
	c2.165,1.666,4.665,2.499,7.664,2.083c2.248,3.248,6.913,4.081,10.328,3.665c0.749,1,1.831,1.916,2.916,2.332
	c5.581,1,11.578-0.916,15.826-1.749c2.664-0.25,5.997-2.415,7.661-1.25c-9.829,24.073-35.734,31.071-57.891,39.151
	c-9.994,4.75-18.241,11.081-27.404,16.828c-0.083-0.751-0.666-0.167-1.083-0.167c-0.666,0.749,0,1.916,0.666,2.415
	c6.997,1.083,15.41-0.165,21.407,3.916c4.083,3.415,6.748,9.413,7.082,15.078c2.083,3.498,5.913,4.081,9.413,4.997
	c9.994,2.582,12.493,14.578,20.823,19.159c1.666,1.501,4.498,1.334,5.748,3.001c2.665,0.499,5.082-1.751,7.165-3.25
	c7.078-9.078,10.077-20.491,17.825-28.656c2.165-3.166,5.913-5.082,7.831-8.245c10.493-12.164,15.24-27.907,16.742-44.567
	c1.25-7.748-1.167-15.829,0.916-23.242c0.666-1.499,1.332-4.164,3.333-3.914c6.247,0.833,12.992,1.165,18.241-0.25
	c4.997-2.083,9.744-1.751,14.16-4.083c0.417-0.499,0.417-1.083,0-1.499c-1.749-7.996-3.914-15.16-8.163-21.99
	c1.165-2.667,2.667-5.665,5.581-6.666c1.165-1.165,0.416-3.331,1.499-4.58c2.916-1.332,32.568-5.164,43.065-4.081
	c3.832,0.749,7.746,2.165,11.994,2.582C218.288,19.982,214.155,10.075,208.991,7.241z M135.688,44.895h-1.081
	c1.081-2.584,1.582-5.582,1.998-8.247c3.5-0.751,8.33-2.332,11.662-2.083C146.435,40.23,140.77,42.645,135.688,44.895z
	 M83.364,51.063c-5.491-3.152-13.081-4.959-20.824-4.959c-4.704,0-9.257,0.684-13.167,1.977c-0.51,0.223-1.344,0.083-2.003-0.358
	l-0.287-0.192l0.312-0.149c2.944-1.411,6.548-1.751,9.728-2.052c1.144-0.108,2.227-0.21,3.237-0.355v-0.302l0.221,0.026
	c0.813,0.097,1.842,0.024,2.8-0.062c0.632-0.057,1.286-0.116,1.928-0.116c0.641,0,1.2,0.06,1.709,0.182l0.151,0.037v0.235
	l0.582,0.087c4.764,0.709,10.163,1.512,14.313,3.825c0.968,0.44,1.328,1.073,1.59,1.949l0.142,0.474L83.364,51.063z M72.218,159.434
	c0.334-1.332,2.664-1.499,1.998,0.332c-1.499,3.582-2.415,8.913-0.332,12.58C70.135,168.931,71.134,164.016,72.218,159.434z
	 M59.473,154.602c-0.751-0.167-1.666-0.167-2.332-0.583c2.25-1.165,4.914-0.749,7.496-1.499
	c10.081-1.248,15.078-11.995,21.574-17.243c0.249,1.167-0.417,2.667-1.248,3.749C78.966,147.604,70.552,154.687,59.473,154.602z
	 M40.563,135.383l0.251-0.118c0.748-0.351,1.989-0.104,3.763,0.303c1.822,0.42,4.317,0.994,7.385,0.994
	c5.05,0,10.145-1.512,15.575-4.622c25.517-13.787,32.759-46.528,35.485-58.854l0.317-1.426l0.483,0.48
	c0.124-0.168,0.268-0.211,0.432-0.243c0.042-0.008,0.087-0.016,0.135-0.032l0.248-0.083l0.012,0.261
	c0.631,14.173-5.958,26.321-12.331,38.068c-0.396,0.729-0.791,1.458-1.184,2.187c-13.723,22.358-37.055,26.88-37.289,26.923
	c-0.811,0.152-1.697,0.23-2.633,0.23c-4.183,0-8.091-1.446-10.456-3.869L40.563,135.383z M119.471,68.747
	c-0.228,0.03-0.474,0.045-0.732,0.045c-2.495,0-6.508-1.466-9.027-4.184c-1.661-1.792-2.452-3.89-2.287-6.067l0.014-0.183h0.865
	l0.013,0.184c0.386,5.547,6.232,7.859,10.501,9.548l0.702,0.279L119.471,68.747z M113.402,109.066
	c-2.48,9.797-6.739,21.247-14.637,29.512c-1.176,1.711-2.865,2.887-4.498,4.023c-0.684,0.476-1.329,0.925-1.936,1.41l-0.138,0.11
	l-0.562-0.564l0.071-0.13c0.69-1.241,1.69-2.123,2.657-2.977c0.822-0.725,1.673-1.475,2.351-2.454
	c3.637-4.447,9.72-13.319,11.89-19.158c2.109-8.975,4.55-18.569,6.511-26.279c1.771-6.968,3.172-12.472,3.14-12.912l0.391-0.053
	c0.485,2.692-0.25,5.45-0.961,8.118c-0.4,1.504-0.814,3.059-0.995,4.563c-0.138,0.783-0.284,1.661-0.445,2.632
	c-0.456,2.746-1.051,6.312-1.927,10.305C114.039,106.459,113.736,107.748,113.402,109.066z M127.808,37.813
	c0,2.417-1.461,4.45-2.873,6.416c-0.624,0.869-1.214,1.69-1.648,2.508l-0.032,0.062l-0.064,0.027
	c-0.301,0.129-0.638,0.194-1.003,0.194c-0.816,0-1.676-0.321-2.435-0.605c-0.155-0.058-0.307-0.115-0.455-0.168l-0.081-0.029
	l-0.034-0.079c-0.32-0.749-1.168-0.831-2.065-0.918c-0.286-0.027-0.581-0.056-0.852-0.109c-0.218,0.2-0.518,0.297-0.91,0.297
	c-0.197,0-0.39-0.022-0.576-0.044c-0.207-0.023-0.403-0.049-0.546-0.025l-0.089,0.015l-0.069-0.057
	c-0.3-0.246-0.46-0.55-0.479-0.905c-0.039-0.792,0.66-1.583,0.963-1.886l0.337-0.338v0.421c0.416-0.038,0.927-0.003,1.449,0.038
	c0.372,0.03,0.757,0.06,1.145,0.06c0.773,0,1.785-0.107,2.745-0.94c0.767-0.406,1.162-1.272,1.544-2.109
	c0.521-1.139,1.059-2.317,2.448-2.317c0.159,0,0.328,0.016,0.503,0.048l3.078,0.262L127.808,37.813L127.808,37.813z M129.788,32.287
	l-0.044,0.097l-7.343,1.165l0.015-0.246c0.11-1.783,0.077-3.5-1.576-3.707l-0.158-0.02l-0.014-0.159
	c-0.051-0.593,0.433-0.882,0.858-1.138c0.457-0.275,0.89-0.534,0.89-1.128v-0.054l0.027-0.046c0.456-0.774,0.103-1.083-0.387-1.51
	c-0.494-0.431-1.108-0.967-0.536-2.063c1.449-1.712,2.595-3.292,2.166-5.615c-0.297-0.172-0.571-0.276-0.838-0.376
	c-0.652-0.245-1.216-0.457-1.588-1.516c-1.193-1.777-3.114-2.358-5.148-2.974c-0.643-0.195-1.308-0.396-1.942-0.639
	c-1.936,0.162-3.645,0.831-5.454,1.54l-0.331,0.13l-0.059-0.013c-6.223-1.374-10.773-0.127-13.362,3.646
	c-3.099,4.513-2.54,11.4-1.571,13.918l0.036,0.093l-0.054,0.084c-0.625,0.979-1.607,1.826-2.647,2.722
	c-2.119,1.827-4.311,3.716-3.167,6.767c1.735,3.94,5.702,6.928,10.348,7.789l0.067,0.026c0.728,0.447,0.847,1.121,0.962,1.772
	c0.072,0.406,0.14,0.791,0.351,1.122l0.106,0.167l-1.174,0.748l-0.099-0.047c-7.461-3.543-13.03-10.369-14.187-17.389
	c-1.581-8.394,0.387-16.709,5.264-22.238c3.781-3.548,7.349-4.489,10.496-5.319c0.6-0.158,1.187-0.313,1.76-0.481
	c2.03-0.335,3.98-0.503,5.819-0.503c10.489,0,16.138,5.349,19.029,9.836C130.082,22.586,130.891,29.857,129.788,32.287z"/>
</svg>
