<svg width="543" height="173" viewBox="0 0 543 173" fill="none" xmlns="http://www.w3.org/2000/svg">
<path d="M56.7307 41.893C59.879 34.017 65.6147 27.98 72.5868 25.4447C74.9143 24.6134 96.4125 24.1562 96.4125 24.1562C96.4125 24.1562 98.9062 31.3881 103.104 41.893C104.455 45.2804 106.554 47.6806 111.011 48.3145C112.476 48.5223 113.588 49.8315 113.588 51.442V138.526H42.6514V51.5563C42.6514 49.873 43.8671 48.5119 45.4049 48.4184C53.0732 47.9508 55.2968 45.4882 56.7307 41.893Z" fill="url(#paint0_linear_1872_6774)"/>
<path d="M66.3008 28.9258C62.1965 32.0534 58.8715 36.5525 56.7311 41.8933C55.2971 45.4884 53.0736 47.951 45.3949 48.4082C44.6883 48.4498 44.0649 48.7719 43.5869 49.2498H83.7675V28.9258H66.3008Z" fill="url(#paint1_linear_1872_6774)"/>
<path d="M73.2209 41.893C77.4187 31.3881 86.23 24.1562 96.4128 24.1562C106.606 24.1562 115.407 31.3881 119.605 41.893C120.955 45.2804 123.054 47.6806 127.512 48.3145C128.977 48.5223 130.089 49.8315 130.089 51.442V138.526H59.1416V51.5563C59.1416 49.873 60.3573 48.5119 61.8951 48.4184C69.5634 47.9508 71.787 45.4882 73.2209 41.893Z" fill="url(#paint2_linear_1872_6774)"/>
<path d="M59.1416 55.3086C59.63 61.9274 59.8898 68.5463 60.056 75.1651C60.243 81.7839 60.295 88.4027 60.3262 95.0216C60.3054 101.64 60.2638 108.259 60.0768 114.878C59.9105 121.497 59.6508 128.116 59.1728 134.735C58.6845 128.116 58.4247 121.497 58.248 114.878C58.061 108.259 58.0091 101.64 57.9883 95.0216C58.0091 88.4027 58.061 81.7839 58.2377 75.1651C58.4039 68.5359 58.6637 61.917 59.1416 55.3086Z" fill="#BDBDBD"/>
<path d="M96.4123 24.1567C92.8691 25.0607 89.6584 26.5881 86.7698 28.5831C83.8813 30.5573 81.2732 32.9679 79.0808 35.6487C78.5301 36.3241 78.0729 37.0099 77.5949 37.7684L76.161 40.0439C75.2155 41.5818 74.2595 43.13 73.1789 44.6366C72.888 45.0211 72.6594 45.3743 72.2957 45.7796C71.9424 46.164 71.558 46.4965 71.1423 46.7771C70.3215 47.3486 69.4383 47.7538 68.5239 48.0239C66.6952 48.5643 64.7937 48.6266 62.9961 48.3357C64.8145 48.159 66.5809 47.7746 68.1395 47.0161C68.9084 46.6316 69.6461 46.1952 70.2487 45.6341C70.8722 45.0834 71.2566 44.4704 71.7242 43.6807C72.6178 42.1532 73.4595 40.5531 74.3427 38.9737C75.2259 37.3943 76.0883 35.763 77.2728 34.2356C79.5795 31.2327 82.4889 28.7909 85.7412 26.931C89.0142 25.1126 92.7341 23.9696 96.4123 24.1567Z" fill="#E0E0E0"/>
<path opacity="0.55" d="M116.196 62.9878C115.053 63.0398 113.775 62.8216 112.83 62.78C111.884 62.7385 110.949 62.9463 110.003 62.9567C108.185 62.9671 106.429 62.1982 104.611 62.1774C102.242 62.1462 99.9556 63.3827 97.5866 63.1749C96.2773 63.0606 95.0201 62.5099 93.7005 62.4995C92.412 62.4891 91.1652 62.9982 89.8663 63.071C87.6947 63.1957 85.5542 62.0527 83.4034 62.3436C82.302 62.4891 81.2733 63.0086 80.1927 63.2476C78.2496 63.6736 75.7559 62.5826 75.7559 60.3382C75.7559 58.7796 77.0235 57.512 78.5821 57.512C79.7459 57.512 80.8888 57.6159 82.0526 57.512C83.5904 57.3769 85.1282 57.0756 86.6764 57.2314C87.8817 57.3561 89.0662 57.751 90.2716 57.6159C91.0405 57.5224 91.7678 57.221 92.5263 57.0236C93.7109 56.7015 94.9785 56.66 96.1838 56.8782C97.2956 57.086 98.3659 57.5224 99.488 57.5639C101.005 57.6263 102.481 56.9717 103.998 56.9821C105.234 56.9924 106.429 57.4496 107.665 57.5016C108.808 57.5535 109.941 57.2626 111.084 57.1275C113.484 56.8366 119.043 56.8366 119.043 60.3486C119.043 62.3852 117.734 62.9255 116.196 62.9878ZM91.8198 89.5047C90.6456 89.4943 89.326 89.1306 88.1831 89.2865C87.4869 89.38 86.8115 89.5671 86.1257 89.6606C85.4815 89.7437 84.8269 89.7437 84.1723 89.7437C81.7201 89.7437 75.9325 90.6685 75.9325 86.7408C75.9325 85.5978 76.6806 84.4445 77.7924 84.0808C79.0601 83.6652 81.0031 84.3614 82.3227 84.5484C82.9566 84.6419 83.5904 84.7354 84.2346 84.7354C86.7907 84.7458 94.6564 81.7741 94.6564 86.7304C94.6564 87.8318 93.8979 89.1307 92.7653 89.4008C92.4536 89.4839 92.1419 89.5151 91.8198 89.5047ZM116.04 89.5567C115.147 89.5463 114.295 89.1722 113.37 89.1514C112.549 89.1307 111.78 89.5359 110.98 89.7437C108.964 90.2528 106.824 89.4528 104.777 89.8164C103.436 90.0554 102.782 90.1801 101.732 89.3281C100.86 88.6215 100.153 87.9773 100.153 86.7616C100.153 85.4524 101.057 84.3198 102.314 84.0081C103.977 83.5821 104.735 84.4029 106.284 84.7354C107.146 84.9224 108.019 84.5588 108.871 84.3406C110.014 84.0496 111.219 84.0081 112.383 84.2263C112.767 84.299 113.152 84.4029 113.547 84.4341C114.918 84.538 115.988 83.5717 117.298 84.2159C117.768 84.4526 118.165 84.8144 118.443 85.2617C118.722 85.7089 118.872 86.2243 118.877 86.7512C118.877 87.9357 118.087 89.0787 116.944 89.432C116.622 89.5255 116.331 89.5567 116.04 89.5567ZM109.712 76.2671C108.029 76.3502 105.982 75.8099 104.766 75.7579C103.301 75.6956 101.867 76.2151 100.402 76.3814C98.0749 76.6307 95.7474 75.9657 93.3991 75.9657C90.656 75.9761 82.2396 78.5634 82.2396 73.5447C82.2396 70.4067 85.097 71.0614 87.1128 71.4354C89.1182 71.8095 91.1548 70.8016 93.1809 70.9886C94.272 71.0925 95.3006 71.5289 96.3916 71.6432C98.3866 71.8407 100.34 70.9159 102.335 70.9574C102.959 70.9678 103.572 71.0821 104.195 71.1237C105.182 71.1964 106.169 71.1029 107.136 70.9367C107.967 70.8016 108.944 70.3652 109.785 70.4899C111.229 70.6977 112.518 72.0796 112.518 73.5343C112.549 75.5917 111.281 76.1943 109.712 76.2671Z" fill="#777777"/>
<path d="M117.287 84.2021C115.978 83.5579 114.897 84.5242 113.536 84.4203C113.141 84.3892 112.757 84.2852 112.373 84.2125C111.207 83.9955 110.009 84.0345 108.861 84.3268C108.008 84.545 107.136 84.9087 106.273 84.7217C104.725 84.3892 103.967 83.5683 102.304 83.9943C101.369 84.2333 100.631 84.9191 100.309 85.7919C100.6 85.5841 100.922 85.4178 101.275 85.3347C102.938 84.9087 103.696 85.7295 105.245 86.062C106.107 86.2491 106.98 85.8854 107.832 85.6672C108.975 85.3763 110.18 85.3347 111.344 85.5529C111.728 85.6256 112.113 85.7295 112.508 85.7607C113.879 85.8646 114.949 84.8983 116.259 85.5425C116.729 85.7792 117.126 86.1411 117.404 86.5883C117.683 87.0356 117.833 87.5509 117.838 88.0778C117.838 88.4103 117.765 88.7428 117.651 89.0545C118.389 88.535 118.867 87.6518 118.867 86.7374C118.867 85.6672 118.243 84.6697 117.287 84.2021ZM84.2243 84.7424C83.5801 84.7424 82.9463 84.6489 82.3125 84.5554C80.9929 84.3684 79.0602 83.6722 77.7821 84.0878C76.9925 84.3476 76.4002 85.0022 76.1093 85.7607C76.3067 85.6256 76.5145 85.5009 76.7535 85.4282C78.0211 85.0126 79.9642 85.7088 81.2838 85.8958C81.9176 85.9893 82.5514 86.0828 83.1957 86.0828C85.7518 86.0932 93.6175 83.1215 93.6175 88.0778C93.6175 88.4103 93.5447 88.7636 93.4096 89.1065C94.1682 88.587 94.6461 87.6102 94.6461 86.7374C94.6461 81.7811 86.7804 84.7528 84.2243 84.7424ZM109.806 70.4969C108.964 70.3722 107.977 70.8086 107.156 70.9437C106.18 71.1099 105.193 71.1931 104.216 71.1307C103.592 71.0891 102.979 70.9749 102.356 70.9645C100.351 70.9229 98.3971 71.8477 96.4125 71.6502C95.3215 71.5359 94.2928 71.0995 93.2018 70.9956C91.1757 70.8086 89.1287 71.8165 87.1337 71.4424C85.3257 71.0995 82.8424 70.5488 82.354 72.6997C83.3723 72.2321 84.8893 72.5542 86.105 72.7828C88.1104 73.1569 90.147 72.149 92.1732 72.336C93.2642 72.4399 94.2929 72.8763 95.3839 72.9906C97.3789 73.1881 99.3323 72.2633 101.327 72.3049C101.951 72.3152 102.564 72.4295 103.187 72.4711C104.174 72.5438 105.161 72.4503 106.128 72.2841C106.959 72.149 107.936 71.7126 108.777 71.8373C110.222 72.0451 111.51 73.427 111.51 74.8817C111.51 75.2558 111.458 75.5779 111.375 75.8584C112.082 75.474 112.539 74.7674 112.539 73.5413C112.549 72.0866 111.25 70.7047 109.806 70.4969ZM111.084 57.1241C109.941 57.2592 108.809 57.5502 107.666 57.4982C106.429 57.4463 105.234 56.9891 103.998 56.9787C102.481 56.9683 101.005 57.6229 99.4882 57.5606C98.366 57.519 97.2853 57.0826 96.1839 56.8748C94.9694 56.6471 93.7191 56.6968 92.5264 57.0202C91.7783 57.2177 91.051 57.5294 90.2717 57.6125C89.0664 57.7476 87.8818 57.3527 86.6765 57.2281C85.1283 57.0722 83.5905 57.3735 82.0527 57.5086C80.8889 57.6125 79.746 57.5086 78.5822 57.5086C77.3665 57.5086 76.3275 58.2879 75.9326 59.3685C76.3898 59.0464 76.9509 58.849 77.5536 58.849C78.7173 58.849 79.8603 58.9529 81.024 58.849C82.5618 58.7139 84.0996 58.4126 85.6479 58.5684C86.8532 58.6931 88.0377 59.088 89.243 58.9529C90.0119 58.8594 90.7393 58.5581 91.4978 58.3606C92.6927 58.0385 93.95 57.997 95.1553 58.2152C96.2671 58.423 97.3373 58.8594 98.4595 58.9009C99.9765 58.9633 101.452 58.3087 102.969 58.3191C104.206 58.3295 105.4 58.7867 106.637 58.8386C107.78 58.8906 108.912 58.5996 110.055 58.4645C112.456 58.1736 118.015 58.1736 118.015 61.6856C118.015 62.0389 117.963 62.3195 117.89 62.5896C118.576 62.2156 119.033 61.5506 119.033 60.3452C119.043 56.8332 113.484 56.8332 111.084 57.1241Z" fill="#777777"/>
<path d="M116.913 148.843H39.3264C38.1522 148.843 37.1963 147.887 37.1963 146.713V132.966C37.1963 131.792 38.1522 130.836 39.3264 130.836H116.913C118.087 130.836 119.043 131.792 119.043 132.966V146.713C119.043 147.887 118.087 148.843 116.913 148.843Z" fill="url(#paint3_linear_1872_6774)"/>
<path d="M133.882 148.843H55.8793C54.8195 148.843 53.957 147.98 53.957 146.921V132.758C53.957 131.698 54.8195 130.836 55.8793 130.836H133.882C134.942 130.836 135.804 131.698 135.804 132.758V146.921C135.804 147.98 134.942 148.843 133.882 148.843Z" fill="url(#paint4_linear_1872_6774)"/>
<path d="M53.9567 133.007C53.884 132.124 54.4243 131.189 55.3075 130.815C55.7439 130.607 56.2531 130.617 56.6687 130.597L57.9883 130.524L63.2563 130.275C66.7684 130.139 70.2804 130.015 73.7924 129.932C80.8165 129.745 87.8405 129.693 94.875 129.672C101.899 129.693 108.923 129.745 115.958 129.932C119.47 130.015 122.982 130.139 126.494 130.275L131.762 130.524L133.081 130.597C133.497 130.628 134.006 130.607 134.443 130.815C135.326 131.199 135.866 132.124 135.793 133.007C135.741 132.114 135.097 131.355 134.318 131.137C133.933 131.002 133.528 131.064 133.081 131.085L131.762 131.158L126.494 131.407C122.982 131.542 119.47 131.667 115.958 131.75C108.934 131.937 101.909 131.989 94.875 132.01C87.8509 131.989 80.8269 131.937 73.7924 131.75C70.2804 131.667 66.7684 131.542 63.2563 131.407L57.9883 131.158L56.6687 131.085C56.2115 131.064 55.8166 131.002 55.4322 131.137C54.6529 131.355 54.0087 132.114 53.9567 133.007Z" fill="#E0E0E0"/>
<path d="M173.408 78V77.36L174.688 76.848C175.541 76.5493 176.096 76.144 176.352 75.632C176.651 75.12 176.8 74.4373 176.8 73.584V40.176C176.8 39.3227 176.672 38.64 176.416 38.128C176.16 37.616 175.584 37.2107 174.688 36.912L173.408 36.4V35.76H189.856V36.4L188.576 36.912C187.723 37.2107 187.147 37.616 186.848 38.128C186.592 38.64 186.464 39.3227 186.464 40.176V73.584C186.464 74.4373 186.592 75.12 186.848 75.632C187.147 76.1013 187.723 76.5067 188.576 76.848L189.856 77.36V78H173.408ZM192.53 78V77.36L193.426 77.104C194.919 76.6773 195.666 75.632 195.666 73.968V53.936C195.666 52.9973 195.517 52.3147 195.218 51.888C194.919 51.4187 194.343 51.0987 193.49 50.928L192.53 50.672V50.032L203.474 46.32L204.114 46.96L204.626 50.8C206.119 49.4773 207.805 48.3893 209.682 47.536C211.559 46.6827 213.415 46.256 215.25 46.256C218.066 46.256 220.221 47.024 221.714 48.56C223.25 50.096 224.018 52.4427 224.018 55.6V74.032C224.018 75.696 224.829 76.7413 226.45 77.168L227.026 77.36V78H211.922V77.36L212.754 77.104C214.247 76.6347 214.994 75.5893 214.994 73.968V53.552C214.994 50.8213 213.629 49.456 210.898 49.456C209.021 49.456 206.973 50.3947 204.754 52.272V74.032C204.754 75.696 205.501 76.7413 206.994 77.168L207.57 77.36V78H192.53ZM229.53 78V77.36L230.426 77.104C231.919 76.6773 232.666 75.632 232.666 73.968V53.936C232.666 52.9973 232.517 52.3147 232.218 51.888C231.919 51.4187 231.343 51.0987 230.49 50.928L229.53 50.672V50.032L240.474 46.32L241.114 46.96L241.626 50.8C243.119 49.4773 244.805 48.3893 246.682 47.536C248.559 46.6827 250.415 46.256 252.25 46.256C255.066 46.256 257.221 47.024 258.714 48.56C260.25 50.096 261.018 52.4427 261.018 55.6V74.032C261.018 75.696 261.829 76.7413 263.45 77.168L264.026 77.36V78H248.922V77.36L249.754 77.104C251.247 76.6347 251.994 75.5893 251.994 73.968V53.552C251.994 50.8213 250.629 49.456 247.898 49.456C246.021 49.456 243.973 50.3947 241.754 52.272V74.032C241.754 75.696 242.501 76.7413 243.994 77.168L244.57 77.36V78H229.53ZM282.722 78.96C279.479 78.96 276.663 78.2987 274.274 76.976C271.885 75.6107 270.029 73.6907 268.706 71.216C267.426 68.7413 266.786 65.84 266.786 62.512C266.786 59.184 267.469 56.304 268.834 53.872C270.242 51.44 272.141 49.5627 274.53 48.24C276.962 46.9173 279.693 46.256 282.722 46.256C285.751 46.256 288.461 46.9173 290.85 48.24C293.239 49.52 295.117 51.376 296.482 53.808C297.89 56.24 298.594 59.1413 298.594 62.512C298.594 65.8827 297.933 68.8053 296.61 71.28C295.33 73.712 293.495 75.6107 291.106 76.976C288.759 78.2987 285.965 78.96 282.722 78.96ZM282.722 77.68C284.215 77.68 285.41 77.2533 286.306 76.4C287.202 75.5467 287.842 74.032 288.226 71.856C288.653 69.68 288.866 66.608 288.866 62.64C288.866 58.6293 288.653 55.536 288.226 53.36C287.842 51.184 287.202 49.6693 286.306 48.816C285.41 47.9627 284.215 47.536 282.722 47.536C281.229 47.536 280.013 47.9627 279.074 48.816C278.178 49.6693 277.517 51.184 277.09 53.36C276.706 55.536 276.514 58.6293 276.514 62.64C276.514 66.608 276.706 69.68 277.09 71.856C277.517 74.032 278.178 75.5467 279.074 76.4C280.013 77.2533 281.229 77.68 282.722 77.68ZM315.366 78.192L304.038 50.992C303.441 49.5413 302.417 48.5813 300.966 48.112L300.07 47.856V47.216H316.646V47.856L315.494 48.112C313.83 48.5387 313.318 49.648 313.958 51.44L320.678 69.296L326.95 51.568C327.291 50.7147 327.377 50.0107 327.206 49.456C327.035 48.9013 326.523 48.496 325.67 48.24L324.07 47.856V47.216H333.35V47.856L331.494 48.304C330.683 48.5173 330.043 48.8373 329.574 49.264C329.147 49.6907 328.785 50.3307 328.486 51.184L319.078 78.192H315.366ZM342.812 78.96C340.337 78.96 338.246 78.256 336.54 76.848C334.876 75.44 334.044 73.4133 334.044 70.768C334.044 68.7627 335.068 66.928 337.116 65.264C339.164 63.5573 342.385 62.2773 346.78 61.424C347.462 61.296 348.23 61.168 349.083 61.04C349.937 60.8693 350.833 60.6987 351.772 60.528V55.472C351.772 52.5707 351.409 50.544 350.684 49.392C350.001 48.1973 348.913 47.6 347.42 47.6C346.396 47.6 345.585 47.9413 344.988 48.624C344.39 49.264 344.006 50.3947 343.836 52.016L343.708 52.72C343.622 54.5547 343.174 55.8987 342.364 56.752C341.553 57.6053 340.55 58.032 339.356 58.032C338.246 58.032 337.329 57.6907 336.604 57.008C335.878 56.3253 335.516 55.408 335.516 54.256C335.516 52.5067 336.113 51.0347 337.308 49.84C338.545 48.6453 340.166 47.7493 342.172 47.152C344.177 46.5547 346.353 46.256 348.7 46.256C352.497 46.256 355.42 47.1947 357.468 49.072C359.558 50.9067 360.604 53.9147 360.604 58.096V72.24C360.604 74.16 361.5 75.12 363.292 75.12H364.7L365.276 75.632C364.465 76.656 363.569 77.4453 362.588 78C361.649 78.5547 360.305 78.832 358.556 78.832C356.678 78.832 355.185 78.4053 354.076 77.552C353.009 76.656 352.305 75.4827 351.964 74.032C350.684 75.3973 349.361 76.5707 347.996 77.552C346.673 78.4907 344.945 78.96 342.812 78.96ZM346.716 75.056C347.569 75.056 348.358 74.864 349.083 74.48C349.852 74.0533 350.748 73.4133 351.772 72.56V61.808C351.345 61.8933 350.918 61.9787 350.492 62.064C350.065 62.1493 349.574 62.2347 349.02 62.32C347.057 62.832 345.478 63.7067 344.284 64.944C343.132 66.1387 342.556 67.76 342.556 69.808C342.556 71.5573 342.961 72.88 343.772 73.776C344.582 74.6293 345.564 75.056 346.716 75.056ZM378.753 78.96C376.022 78.96 373.889 78.2773 372.353 76.912C370.859 75.5467 370.113 73.3707 370.113 70.384V48.496H365.697V47.856L367.233 47.6C368.555 47.3013 369.686 46.8747 370.625 46.32C371.606 45.7653 372.566 45.0187 373.505 44.08L378.753 38.256H379.393L379.201 47.216H386.369V48.496H379.137V71.536C379.137 73.0293 379.457 74.16 380.097 74.928C380.779 75.696 381.633 76.08 382.657 76.08C383.553 76.08 384.342 75.8667 385.025 75.44C385.707 74.9707 386.39 74.352 387.073 73.584L387.713 74.224C386.859 75.6747 385.686 76.8267 384.193 77.68C382.699 78.5333 380.886 78.96 378.753 78.96ZM397.398 42.928C395.947 42.928 394.71 42.48 393.686 41.584C392.704 40.6453 392.214 39.472 392.214 38.064C392.214 36.6133 392.704 35.44 393.686 34.544C394.71 33.648 395.947 33.2 397.398 33.2C398.848 33.2 400.064 33.648 401.046 34.544C402.027 35.44 402.518 36.6133 402.518 38.064C402.518 39.472 402.027 40.6453 401.046 41.584C400.064 42.48 398.848 42.928 397.398 42.928ZM389.846 78V77.36L390.742 77.104C391.595 76.848 392.171 76.464 392.47 75.952C392.811 75.44 392.982 74.7573 392.982 73.904V53.872C392.982 52.976 392.811 52.3147 392.47 51.888C392.171 51.4187 391.595 51.0987 390.742 50.928L389.846 50.736V50.096L401.558 46.32L402.198 46.96L402.006 56.048V73.968C402.006 74.8213 402.155 75.504 402.454 76.016C402.795 76.528 403.371 76.912 404.182 77.168L404.822 77.36V78H389.846ZM421.429 78.192L410.101 50.992C409.503 49.5413 408.479 48.5813 407.029 48.112L406.133 47.856V47.216H422.708V47.856L421.557 48.112C419.893 48.5387 419.381 49.648 420.021 51.44L426.741 69.296L433.013 51.568C433.354 50.7147 433.439 50.0107 433.269 49.456C433.098 48.9013 432.586 48.496 431.733 48.24L430.133 47.856V47.216H439.413V47.856L437.557 48.304C436.746 48.5173 436.106 48.8373 435.637 49.264C435.21 49.6907 434.847 50.3307 434.549 51.184L425.141 78.192H421.429ZM455.407 46.256C458.18 46.256 460.548 46.832 462.511 47.984C464.473 49.0933 465.967 50.6293 466.991 52.592C468.057 54.512 468.591 56.7093 468.591 59.184C468.591 59.6533 468.569 60.144 468.527 60.656C468.484 61.1253 468.399 61.552 468.271 61.936H449.199C449.241 66.544 450.052 69.872 451.631 71.92C453.252 73.9253 455.641 74.928 458.799 74.928C460.932 74.928 462.66 74.5867 463.983 73.904C465.305 73.2213 466.543 72.2187 467.695 70.896L468.335 71.472C467.012 73.8187 465.241 75.6533 463.023 76.976C460.847 78.2987 458.223 78.96 455.151 78.96C452.121 78.96 449.433 78.32 447.087 77.04C444.74 75.7173 442.905 73.84 441.583 71.408C440.26 68.976 439.599 66.0747 439.599 62.704C439.599 59.2053 440.367 56.24 441.903 53.808C443.439 51.3333 445.401 49.456 447.791 48.176C450.223 46.896 452.761 46.256 455.407 46.256ZM455.215 47.536C453.977 47.536 452.911 47.92 452.015 48.688C451.161 49.4133 450.479 50.736 449.967 52.656C449.497 54.5333 449.241 57.2 449.199 60.656H460.143C460.569 56.0053 460.399 52.656 459.631 50.608C458.863 48.56 457.391 47.536 455.215 47.536Z" fill="#001816"/>
<path d="M173.408 141V140.36L174.688 139.848C175.541 139.549 176.096 139.144 176.352 138.632C176.651 138.12 176.8 137.459 176.8 136.648V103.176C176.8 102.323 176.651 101.64 176.352 101.128C176.096 100.616 175.541 100.211 174.688 99.912L173.408 99.4V98.76H189.664V99.4L188.576 99.848C187.765 100.147 187.211 100.552 186.912 101.064C186.613 101.533 186.464 102.195 186.464 103.048V118.6H201.76V103.048C201.76 102.195 201.611 101.533 201.312 101.064C201.056 100.552 200.501 100.147 199.648 99.848L198.496 99.4V98.76H214.816V99.4L213.536 99.912C212.725 100.211 212.171 100.616 211.872 101.128C211.573 101.64 211.424 102.323 211.424 103.176V136.648C211.424 137.459 211.573 138.12 211.872 138.632C212.171 139.144 212.725 139.549 213.536 139.848L214.816 140.36V141H198.496V140.36L199.648 139.976C200.501 139.635 201.056 139.229 201.312 138.76C201.611 138.248 201.76 137.565 201.76 136.712V119.88H186.464V136.712C186.464 138.291 187.168 139.379 188.576 139.976L189.664 140.36V141H173.408ZM231.907 109.256C234.68 109.256 237.048 109.832 239.011 110.984C240.973 112.093 242.467 113.629 243.491 115.592C244.557 117.512 245.091 119.709 245.091 122.184C245.091 122.653 245.069 123.144 245.027 123.656C244.984 124.125 244.899 124.552 244.771 124.936H225.699C225.741 129.544 226.552 132.872 228.131 134.92C229.752 136.925 232.141 137.928 235.299 137.928C237.432 137.928 239.16 137.587 240.483 136.904C241.805 136.221 243.043 135.219 244.195 133.896L244.835 134.472C243.512 136.819 241.741 138.653 239.523 139.976C237.347 141.299 234.723 141.96 231.651 141.96C228.621 141.96 225.933 141.32 223.587 140.04C221.24 138.717 219.405 136.84 218.083 134.408C216.76 131.976 216.099 129.075 216.099 125.704C216.099 122.205 216.867 119.24 218.403 116.808C219.939 114.333 221.901 112.456 224.291 111.176C226.723 109.896 229.261 109.256 231.907 109.256ZM231.715 110.536C230.477 110.536 229.411 110.92 228.515 111.688C227.661 112.413 226.979 113.736 226.467 115.656C225.997 117.533 225.741 120.2 225.699 123.656H236.643C237.069 119.005 236.899 115.656 236.131 113.608C235.363 111.56 233.891 110.536 231.715 110.536ZM257.374 141.96C254.899 141.96 252.809 141.256 251.102 139.848C249.438 138.44 248.606 136.413 248.606 133.768C248.606 131.763 249.63 129.928 251.678 128.264C253.726 126.557 256.947 125.277 261.342 124.424C262.025 124.296 262.793 124.168 263.646 124.04C264.499 123.869 265.395 123.699 266.334 123.528V118.472C266.334 115.571 265.971 113.544 265.246 112.392C264.563 111.197 263.475 110.6 261.982 110.6C260.958 110.6 260.147 110.941 259.55 111.624C258.953 112.264 258.569 113.395 258.398 115.016L258.27 115.72C258.185 117.555 257.737 118.899 256.926 119.752C256.115 120.605 255.113 121.032 253.918 121.032C252.809 121.032 251.891 120.691 251.166 120.008C250.441 119.325 250.078 118.408 250.078 117.256C250.078 115.507 250.675 114.035 251.87 112.84C253.107 111.645 254.729 110.749 256.734 110.152C258.739 109.555 260.915 109.256 263.262 109.256C267.059 109.256 269.982 110.195 272.03 112.072C274.121 113.907 275.166 116.915 275.166 121.096V135.24C275.166 137.16 276.062 138.12 277.854 138.12H279.262L279.838 138.632C279.027 139.656 278.131 140.445 277.15 141C276.211 141.555 274.867 141.832 273.118 141.832C271.241 141.832 269.747 141.405 268.638 140.552C267.571 139.656 266.867 138.483 266.526 137.032C265.246 138.397 263.923 139.571 262.558 140.552C261.235 141.491 259.507 141.96 257.374 141.96ZM261.278 138.056C262.131 138.056 262.921 137.864 263.646 137.48C264.414 137.053 265.31 136.413 266.334 135.56V124.808C265.907 124.893 265.481 124.979 265.054 125.064C264.627 125.149 264.137 125.235 263.582 125.32C261.619 125.832 260.041 126.707 258.846 127.944C257.694 129.139 257.118 130.76 257.118 132.808C257.118 134.557 257.523 135.88 258.334 136.776C259.145 137.629 260.126 138.056 261.278 138.056ZM294.723 141.96C292.206 141.96 289.944 141.405 287.939 140.296C285.934 139.144 284.334 137.395 283.139 135.048C281.987 132.659 281.411 129.608 281.411 125.896C281.411 122.141 282.072 119.048 283.395 116.616C284.718 114.141 286.467 112.307 288.643 111.112C290.819 109.875 293.187 109.256 295.747 109.256C297.24 109.256 298.67 109.405 300.035 109.704C301.4 110.003 302.616 110.451 303.683 111.048V102.728C303.683 101.832 303.534 101.171 303.235 100.744C302.979 100.317 302.403 100.019 301.507 99.848L300.291 99.592V98.952L311.939 96.136L312.643 96.712L312.387 105.672V136.968C312.387 137.821 312.536 138.525 312.835 139.08C313.134 139.592 313.688 139.955 314.499 140.168L315.075 140.36V141L304.131 141.704L303.555 139.4C302.403 140.168 301.08 140.787 299.587 141.256C298.136 141.725 296.515 141.96 294.723 141.96ZM298.435 139.592C300.227 139.592 301.87 139.059 303.363 137.992V112.584C301.784 111.56 300.163 111.048 298.499 111.048C296.451 111.048 294.702 112.243 293.251 114.632C291.8 116.979 291.075 120.691 291.075 125.768C291.075 130.845 291.758 134.429 293.123 136.52C294.488 138.568 296.259 139.592 298.435 139.592Z" fill="#22A699"/>
<path d="M328.977 141.96C326.886 141.96 325.009 141.704 323.345 141.192C321.681 140.723 320.145 140.125 318.737 139.4L318.801 131.784H319.441L321.617 135.624C322.556 137.331 323.58 138.611 324.689 139.464C325.841 140.275 327.292 140.68 329.041 140.68C331.089 140.68 332.732 140.232 333.969 139.336C335.249 138.397 335.889 137.16 335.889 135.624C335.889 134.216 335.441 133.064 334.545 132.168C333.649 131.272 331.985 130.461 329.553 129.736L326.865 128.904C324.262 128.136 322.214 126.941 320.721 125.32C319.228 123.699 318.481 121.715 318.481 119.368C318.481 116.552 319.59 114.163 321.809 112.2C324.028 110.237 327.206 109.256 331.345 109.256C333.009 109.256 334.566 109.448 336.017 109.832C337.51 110.173 338.94 110.707 340.305 111.432L339.921 118.344H339.281L337.041 114.376C336.23 112.968 335.42 111.987 334.609 111.432C333.841 110.835 332.668 110.536 331.089 110.536C329.638 110.536 328.273 110.941 326.993 111.752C325.713 112.563 325.073 113.715 325.073 115.208C325.073 116.659 325.606 117.811 326.673 118.664C327.782 119.517 329.404 120.307 331.537 121.032L334.417 121.864C337.489 122.803 339.686 124.104 341.009 125.768C342.332 127.389 342.993 129.352 342.993 131.656C342.993 134.771 341.756 137.267 339.281 139.144C336.849 141.021 333.414 141.96 328.977 141.96ZM357.94 141.96C355.209 141.96 353.076 141.277 351.54 139.912C350.047 138.547 349.3 136.371 349.3 133.384V111.496H344.884V110.856L346.42 110.6C347.743 110.301 348.873 109.875 349.812 109.32C350.793 108.765 351.753 108.019 352.692 107.08L357.94 101.256H358.58L358.388 110.216H365.556V111.496H358.324V134.536C358.324 136.029 358.644 137.16 359.284 137.928C359.967 138.696 360.82 139.08 361.844 139.08C362.74 139.08 363.529 138.867 364.212 138.44C364.895 137.971 365.577 137.352 366.26 136.584L366.9 137.224C366.047 138.675 364.873 139.827 363.38 140.68C361.887 141.533 360.073 141.96 357.94 141.96ZM384.91 141.96C381.667 141.96 378.851 141.299 376.462 139.976C374.072 138.611 372.216 136.691 370.894 134.216C369.614 131.741 368.974 128.84 368.974 125.512C368.974 122.184 369.656 119.304 371.022 116.872C372.43 114.44 374.328 112.563 376.718 111.24C379.15 109.917 381.88 109.256 384.91 109.256C387.939 109.256 390.648 109.917 393.038 111.24C395.427 112.52 397.304 114.376 398.67 116.808C400.078 119.24 400.782 122.141 400.782 125.512C400.782 128.883 400.12 131.805 398.798 134.28C397.518 136.712 395.683 138.611 393.294 139.976C390.947 141.299 388.152 141.96 384.91 141.96ZM384.91 140.68C386.403 140.68 387.598 140.253 388.494 139.4C389.39 138.547 390.03 137.032 390.414 134.856C390.84 132.68 391.054 129.608 391.054 125.64C391.054 121.629 390.84 118.536 390.414 116.36C390.03 114.184 389.39 112.669 388.494 111.816C387.598 110.963 386.403 110.536 384.91 110.536C383.416 110.536 382.2 110.963 381.262 111.816C380.366 112.669 379.704 114.184 379.278 116.36C378.894 118.536 378.702 121.629 378.702 125.64C378.702 129.608 378.894 132.68 379.278 134.856C379.704 137.032 380.366 138.547 381.262 139.4C382.2 140.253 383.416 140.68 384.91 140.68ZM403.593 141V140.36L404.489 140.104C405.982 139.677 406.729 138.632 406.729 136.968V116.936C406.729 115.997 406.579 115.315 406.281 114.888C405.982 114.419 405.406 114.099 404.553 113.928L403.593 113.672V113.032L414.537 109.32L415.177 109.96L415.689 113.8C417.182 112.477 418.867 111.389 420.745 110.536C422.622 109.683 424.478 109.256 426.313 109.256C429.129 109.256 431.283 110.024 432.777 111.56C434.313 113.096 435.081 115.443 435.081 118.6V137.032C435.081 138.696 435.891 139.741 437.513 140.168L438.089 140.36V141H422.985V140.36L423.817 140.104C425.31 139.635 426.057 138.589 426.057 136.968V116.552C426.057 113.821 424.691 112.456 421.961 112.456C420.083 112.456 418.035 113.395 415.817 115.272V137.032C415.817 138.696 416.563 139.741 418.057 140.168L418.633 140.36V141H403.593ZM456.657 109.256C459.43 109.256 461.798 109.832 463.761 110.984C465.723 112.093 467.217 113.629 468.241 115.592C469.307 117.512 469.841 119.709 469.841 122.184C469.841 122.653 469.819 123.144 469.777 123.656C469.734 124.125 469.649 124.552 469.521 124.936H450.449C450.491 129.544 451.302 132.872 452.881 134.92C454.502 136.925 456.891 137.928 460.049 137.928C462.182 137.928 463.91 137.587 465.233 136.904C466.555 136.221 467.793 135.219 468.945 133.896L469.585 134.472C468.262 136.819 466.491 138.653 464.273 139.976C462.097 141.299 459.473 141.96 456.401 141.96C453.371 141.96 450.683 141.32 448.337 140.04C445.99 138.717 444.155 136.84 442.833 134.408C441.51 131.976 440.849 129.075 440.849 125.704C440.849 122.205 441.617 119.24 443.153 116.808C444.689 114.333 446.651 112.456 449.041 111.176C451.473 109.896 454.011 109.256 456.657 109.256ZM456.465 110.536C455.227 110.536 454.161 110.92 453.265 111.688C452.411 112.413 451.729 113.736 451.217 115.656C450.747 117.533 450.491 120.2 450.449 123.656H461.393C461.819 119.005 461.649 115.656 460.881 113.608C460.113 111.56 458.641 110.536 456.465 110.536ZM484.102 141.96C482.011 141.96 480.134 141.704 478.47 141.192C476.806 140.723 475.27 140.125 473.862 139.4L473.926 131.784H474.566L476.742 135.624C477.681 137.331 478.705 138.611 479.814 139.464C480.966 140.275 482.417 140.68 484.166 140.68C486.214 140.68 487.857 140.232 489.094 139.336C490.374 138.397 491.014 137.16 491.014 135.624C491.014 134.216 490.566 133.064 489.67 132.168C488.774 131.272 487.11 130.461 484.678 129.736L481.99 128.904C479.387 128.136 477.339 126.941 475.846 125.32C474.353 123.699 473.606 121.715 473.606 119.368C473.606 116.552 474.715 114.163 476.934 112.2C479.153 110.237 482.331 109.256 486.47 109.256C488.134 109.256 489.691 109.448 491.142 109.832C492.635 110.173 494.065 110.707 495.43 111.432L495.046 118.344H494.406L492.166 114.376C491.355 112.968 490.545 111.987 489.734 111.432C488.966 110.835 487.793 110.536 486.214 110.536C484.763 110.536 483.398 110.941 482.118 111.752C480.838 112.563 480.198 113.715 480.198 115.208C480.198 116.659 480.731 117.811 481.798 118.664C482.907 119.517 484.529 120.307 486.662 121.032L489.542 121.864C492.614 122.803 494.811 124.104 496.134 125.768C497.457 127.389 498.118 129.352 498.118 131.656C498.118 134.771 496.881 137.267 494.406 139.144C491.974 141.021 488.539 141.96 484.102 141.96Z" fill="#FA9A04"/>
<defs>
<linearGradient id="paint0_linear_1872_6774" x1="78.1198" y1="51.1501" x2="78.1198" y2="152.577" gradientUnits="userSpaceOnUse">
<stop offset="0.104" stop-color="#9E9E9E"/>
<stop offset="0.454" stop-color="#849298"/>
<stop offset="0.673" stop-color="#7A8D96"/>
<stop offset="0.948" stop-color="#505E64"/>
</linearGradient>
<linearGradient id="paint1_linear_1872_6774" x1="63.673" y1="29.1845" x2="63.673" y2="50.2941" gradientUnits="userSpaceOnUse">
<stop stop-color="#757575" stop-opacity="0"/>
<stop offset="0.828" stop-color="#757575"/>
<stop offset="0.954" stop-color="#757575" stop-opacity="0"/>
</linearGradient>
<linearGradient id="paint2_linear_1872_6774" x1="106.832" y1="40.3002" x2="74.5021" y2="184.664" gradientUnits="userSpaceOnUse">
<stop offset="0.153" stop-color="#BDBDBD"/>
<stop offset="1" stop-color="#6E818A"/>
</linearGradient>
<linearGradient id="paint3_linear_1872_6774" x1="78.1198" y1="123.799" x2="78.1198" y2="161.447" gradientUnits="userSpaceOnUse">
<stop offset="0.104" stop-color="#9E9E9E"/>
<stop offset="0.454" stop-color="#849298"/>
<stop offset="0.673" stop-color="#7A8D96"/>
<stop offset="0.948" stop-color="#505E64"/>
</linearGradient>
<linearGradient id="paint4_linear_1872_6774" x1="94.8805" y1="128.311" x2="94.8805" y2="163.668" gradientUnits="userSpaceOnUse">
<stop offset="0.153" stop-color="#BDBDBD"/>
<stop offset="1" stop-color="#6E818A"/>
</linearGradient>
</defs>
</svg>
